<?xml version="1.0" encoding="utf-8" standalone="no"?>
<!DOCTYPE svg PUBLIC "-//W3C//DTD SVG 1.1//EN"
  "http://www.w3.org/Graphics/SVG/1.1/DTD/svg11.dtd">
<!-- Created with matplotlib (http://matplotlib.org/) -->
<svg height="345.6pt" version="1.1" viewBox="0 0 460.8 345.6" width="460.8pt" xmlns="http://www.w3.org/2000/svg" xmlns:xlink="http://www.w3.org/1999/xlink">
 <defs>
  <style type="text/css">
*{stroke-linecap:butt;stroke-linejoin:round;}
  </style>
 </defs>
 <g id="figure_1">
  <g id="patch_1">
   <path d="M 0 345.6 
L 460.8 345.6 
L 460.8 0 
L 0 0 
z
" style="fill:#ffffff;"/>
  </g>
  <g id="axes_1">
   <g id="patch_2">
    <path d="M 57.6 307.584 
L 414.72 307.584 
L 414.72 41.472 
L 57.6 41.472 
z
" style="fill:#ffffff;"/>
   </g>
   <g id="matplotlib.axis_1">
    <g id="xtick_1">
     <g id="line2d_1">
      <defs>
       <path d="M 0 0 
L 0 3.5 
" id="mab5fd6f7b2" style="stroke:#000000;stroke-width:0.8;"/>
      </defs>
      <g>
       <use style="stroke:#000000;stroke-width:0.8;" x="73.832727" xlink:href="#mab5fd6f7b2" y="307.584"/>
      </g>
     </g>
     <g id="text_1">
      <!-- −10 -->
      <defs>
       <path d="M 10.59375 35.5 
L 73.1875 35.5 
L 73.1875 27.203125 
L 10.59375 27.203125 
z
" id="DejaVuSans-2212"/>
       <path d="M 12.40625 8.296875 
L 28.515625 8.296875 
L 28.515625 63.921875 
L 10.984375 60.40625 
L 10.984375 69.390625 
L 28.421875 72.90625 
L 38.28125 72.90625 
L 38.28125 8.296875 
L 54.390625 8.296875 
L 54.390625 0 
L 12.40625 0 
z
" id="DejaVuSans-31"/>
       <path d="M 31.78125 66.40625 
Q 24.171875 66.40625 20.328125 58.90625 
Q 16.5 51.421875 16.5 36.375 
Q 16.5 21.390625 20.328125 13.890625 
Q 24.171875 6.390625 31.78125 6.390625 
Q 39.453125 6.390625 43.28125 13.890625 
Q 47.125 21.390625 47.125 36.375 
Q 47.125 51.421875 43.28125 58.90625 
Q 39.453125 66.40625 31.78125 66.40625 
z
M 31.78125 74.21875 
Q 44.046875 74.21875 50.515625 64.515625 
Q 56.984375 54.828125 56.984375 36.375 
Q 56.984375 17.96875 50.515625 8.265625 
Q 44.046875 -1.421875 31.78125 -1.421875 
Q 19.53125 -1.421875 13.0625 8.265625 
Q 6.59375 17.96875 6.59375 36.375 
Q 6.59375 54.828125 13.0625 64.515625 
Q 19.53125 74.21875 31.78125 74.21875 
z
" id="DejaVuSans-30"/>
      </defs>
      <g transform="translate(63.280384 322.182437)scale(0.1 -0.1)">
       <use xlink:href="#DejaVuSans-2212"/>
       <use x="83.789062" xlink:href="#DejaVuSans-31"/>
       <use x="147.412109" xlink:href="#DejaVuSans-30"/>
      </g>
     </g>
    </g>
    <g id="xtick_2">
     <g id="line2d_2">
      <g>
       <use style="stroke:#000000;stroke-width:0.8;" x="127.941818" xlink:href="#mab5fd6f7b2" y="307.584"/>
      </g>
     </g>
     <g id="text_2">
      <!-- −5 -->
      <defs>
       <path d="M 10.796875 72.90625 
L 49.515625 72.90625 
L 49.515625 64.59375 
L 19.828125 64.59375 
L 19.828125 46.734375 
Q 21.96875 47.46875 24.109375 47.828125 
Q 26.265625 48.1875 28.421875 48.1875 
Q 40.625 48.1875 47.75 41.5 
Q 54.890625 34.8125 54.890625 23.390625 
Q 54.890625 11.625 47.5625 5.09375 
Q 40.234375 -1.421875 26.90625 -1.421875 
Q 22.3125 -1.421875 17.546875 -0.640625 
Q 12.796875 0.140625 7.71875 1.703125 
L 7.71875 11.625 
Q 12.109375 9.234375 16.796875 8.0625 
Q 21.484375 6.890625 26.703125 6.890625 
Q 35.15625 6.890625 40.078125 11.328125 
Q 45.015625 15.765625 45.015625 23.390625 
Q 45.015625 31 40.078125 35.4375 
Q 35.15625 39.890625 26.703125 39.890625 
Q 22.75 39.890625 18.8125 39.015625 
Q 14.890625 38.140625 10.796875 36.28125 
z
" id="DejaVuSans-35"/>
      </defs>
      <g transform="translate(120.570724 322.182437)scale(0.1 -0.1)">
       <use xlink:href="#DejaVuSans-2212"/>
       <use x="83.789062" xlink:href="#DejaVuSans-35"/>
      </g>
     </g>
    </g>
    <g id="xtick_3">
     <g id="line2d_3">
      <g>
       <use style="stroke:#000000;stroke-width:0.8;" x="182.050909" xlink:href="#mab5fd6f7b2" y="307.584"/>
      </g>
     </g>
     <g id="text_3">
      <!-- 0 -->
      <g transform="translate(178.869659 322.182437)scale(0.1 -0.1)">
       <use xlink:href="#DejaVuSans-30"/>
      </g>
     </g>
    </g>
    <g id="xtick_4">
     <g id="line2d_4">
      <g>
       <use style="stroke:#000000;stroke-width:0.8;" x="236.16" xlink:href="#mab5fd6f7b2" y="307.584"/>
      </g>
     </g>
     <g id="text_4">
      <!-- 5 -->
      <g transform="translate(232.97875 322.182437)scale(0.1 -0.1)">
       <use xlink:href="#DejaVuSans-35"/>
      </g>
     </g>
    </g>
    <g id="xtick_5">
     <g id="line2d_5">
      <g>
       <use style="stroke:#000000;stroke-width:0.8;" x="290.269091" xlink:href="#mab5fd6f7b2" y="307.584"/>
      </g>
     </g>
     <g id="text_5">
      <!-- 10 -->
      <g transform="translate(283.906591 322.182437)scale(0.1 -0.1)">
       <use xlink:href="#DejaVuSans-31"/>
       <use x="63.623047" xlink:href="#DejaVuSans-30"/>
      </g>
     </g>
    </g>
    <g id="xtick_6">
     <g id="line2d_6">
      <g>
       <use style="stroke:#000000;stroke-width:0.8;" x="344.378182" xlink:href="#mab5fd6f7b2" y="307.584"/>
      </g>
     </g>
     <g id="text_6">
      <!-- 15 -->
      <g transform="translate(338.015682 322.182437)scale(0.1 -0.1)">
       <use xlink:href="#DejaVuSans-31"/>
       <use x="63.623047" xlink:href="#DejaVuSans-35"/>
      </g>
     </g>
    </g>
    <g id="xtick_7">
     <g id="line2d_7">
      <g>
       <use style="stroke:#000000;stroke-width:0.8;" x="398.487273" xlink:href="#mab5fd6f7b2" y="307.584"/>
      </g>
     </g>
     <g id="text_7">
      <!-- 20 -->
      <defs>
       <path d="M 19.1875 8.296875 
L 53.609375 8.296875 
L 53.609375 0 
L 7.328125 0 
L 7.328125 8.296875 
Q 12.9375 14.109375 22.625 23.890625 
Q 32.328125 33.6875 34.8125 36.53125 
Q 39.546875 41.84375 41.421875 45.53125 
Q 43.3125 49.21875 43.3125 52.78125 
Q 43.3125 58.59375 39.234375 62.25 
Q 35.15625 65.921875 28.609375 65.921875 
Q 23.96875 65.921875 18.8125 64.3125 
Q 13.671875 62.703125 7.8125 59.421875 
L 7.8125 69.390625 
Q 13.765625 71.78125 18.9375 73 
Q 24.125 74.21875 28.421875 74.21875 
Q 39.75 74.21875 46.484375 68.546875 
Q 53.21875 62.890625 53.21875 53.421875 
Q 53.21875 48.921875 51.53125 44.890625 
Q 49.859375 40.875 45.40625 35.40625 
Q 44.1875 33.984375 37.640625 27.21875 
Q 31.109375 20.453125 19.1875 8.296875 
z
" id="DejaVuSans-32"/>
      </defs>
      <g transform="translate(392.124773 322.182437)scale(0.1 -0.1)">
       <use xlink:href="#DejaVuSans-32"/>
       <use x="63.623047" xlink:href="#DejaVuSans-30"/>
      </g>
     </g>
    </g>
    <g id="text_8">
     <!-- x -->
     <defs>
      <path d="M 54.890625 54.6875 
L 35.109375 28.078125 
L 55.90625 0 
L 45.3125 0 
L 29.390625 21.484375 
L 13.484375 0 
L 2.875 0 
L 24.125 28.609375 
L 4.6875 54.6875 
L 15.28125 54.6875 
L 29.78125 35.203125 
L 44.28125 54.6875 
z
" id="DejaVuSans-78"/>
     </defs>
     <g transform="translate(233.200625 335.860562)scale(0.1 -0.1)">
      <use xlink:href="#DejaVuSans-78"/>
     </g>
    </g>
   </g>
   <g id="matplotlib.axis_2">
    <g id="ytick_1">
     <g id="line2d_8">
      <defs>
       <path d="M 0 0 
L -3.5 0 
" id="mdc9e00842c" style="stroke:#000000;stroke-width:0.8;"/>
      </defs>
      <g>
       <use style="stroke:#000000;stroke-width:0.8;" x="57.6" xlink:href="#mdc9e00842c" y="287.315644"/>
      </g>
     </g>
     <g id="text_9">
      <!-- −2.5 -->
      <defs>
       <path d="M 10.6875 12.40625 
L 21 12.40625 
L 21 0 
L 10.6875 0 
z
" id="DejaVuSans-2e"/>
      </defs>
      <g transform="translate(26.317187 291.114863)scale(0.1 -0.1)">
       <use xlink:href="#DejaVuSans-2212"/>
       <use x="83.789062" xlink:href="#DejaVuSans-32"/>
       <use x="147.412109" xlink:href="#DejaVuSans-2e"/>
       <use x="179.199219" xlink:href="#DejaVuSans-35"/>
      </g>
     </g>
    </g>
    <g id="ytick_2">
     <g id="line2d_9">
      <g>
       <use style="stroke:#000000;stroke-width:0.8;" x="57.6" xlink:href="#mdc9e00842c" y="252.198642"/>
      </g>
     </g>
     <g id="text_10">
      <!-- 0.0 -->
      <g transform="translate(34.696875 255.99786)scale(0.1 -0.1)">
       <use xlink:href="#DejaVuSans-30"/>
       <use x="63.623047" xlink:href="#DejaVuSans-2e"/>
       <use x="95.410156" xlink:href="#DejaVuSans-30"/>
      </g>
     </g>
    </g>
    <g id="ytick_3">
     <g id="line2d_10">
      <g>
       <use style="stroke:#000000;stroke-width:0.8;" x="57.6" xlink:href="#mdc9e00842c" y="217.081639"/>
      </g>
     </g>
     <g id="text_11">
      <!-- 2.5 -->
      <g transform="translate(34.696875 220.880858)scale(0.1 -0.1)">
       <use xlink:href="#DejaVuSans-32"/>
       <use x="63.623047" xlink:href="#DejaVuSans-2e"/>
       <use x="95.410156" xlink:href="#DejaVuSans-35"/>
      </g>
     </g>
    </g>
    <g id="ytick_4">
     <g id="line2d_11">
      <g>
       <use style="stroke:#000000;stroke-width:0.8;" x="57.6" xlink:href="#mdc9e00842c" y="181.964636"/>
      </g>
     </g>
     <g id="text_12">
      <!-- 5.0 -->
      <g transform="translate(34.696875 185.763855)scale(0.1 -0.1)">
       <use xlink:href="#DejaVuSans-35"/>
       <use x="63.623047" xlink:href="#DejaVuSans-2e"/>
       <use x="95.410156" xlink:href="#DejaVuSans-30"/>
      </g>
     </g>
    </g>
    <g id="ytick_5">
     <g id="line2d_12">
      <g>
       <use style="stroke:#000000;stroke-width:0.8;" x="57.6" xlink:href="#mdc9e00842c" y="146.847633"/>
      </g>
     </g>
     <g id="text_13">
      <!-- 7.5 -->
      <defs>
       <path d="M 8.203125 72.90625 
L 55.078125 72.90625 
L 55.078125 68.703125 
L 28.609375 0 
L 18.3125 0 
L 43.21875 64.59375 
L 8.203125 64.59375 
z
" id="DejaVuSans-37"/>
      </defs>
      <g transform="translate(34.696875 150.646852)scale(0.1 -0.1)">
       <use xlink:href="#DejaVuSans-37"/>
       <use x="63.623047" xlink:href="#DejaVuSans-2e"/>
       <use x="95.410156" xlink:href="#DejaVuSans-35"/>
      </g>
     </g>
    </g>
    <g id="ytick_6">
     <g id="line2d_13">
      <g>
       <use style="stroke:#000000;stroke-width:0.8;" x="57.6" xlink:href="#mdc9e00842c" y="111.730631"/>
      </g>
     </g>
     <g id="text_14">
      <!-- 10.0 -->
      <g transform="translate(28.334375 115.529849)scale(0.1 -0.1)">
       <use xlink:href="#DejaVuSans-31"/>
       <use x="63.623047" xlink:href="#DejaVuSans-30"/>
       <use x="127.246094" xlink:href="#DejaVuSans-2e"/>
       <use x="159.033203" xlink:href="#DejaVuSans-30"/>
      </g>
     </g>
    </g>
    <g id="ytick_7">
     <g id="line2d_14">
      <g>
       <use style="stroke:#000000;stroke-width:0.8;" x="57.6" xlink:href="#mdc9e00842c" y="76.613628"/>
      </g>
     </g>
     <g id="text_15">
      <!-- 12.5 -->
      <g transform="translate(28.334375 80.412847)scale(0.1 -0.1)">
       <use xlink:href="#DejaVuSans-31"/>
       <use x="63.623047" xlink:href="#DejaVuSans-32"/>
       <use x="127.246094" xlink:href="#DejaVuSans-2e"/>
       <use x="159.033203" xlink:href="#DejaVuSans-35"/>
      </g>
     </g>
    </g>
    <g id="ytick_8">
     <g id="line2d_15">
      <g>
       <use style="stroke:#000000;stroke-width:0.8;" x="57.6" xlink:href="#mdc9e00842c" y="41.496625"/>
      </g>
     </g>
     <g id="text_16">
      <!-- 15.0 -->
      <g transform="translate(28.334375 45.295844)scale(0.1 -0.1)">
       <use xlink:href="#DejaVuSans-31"/>
       <use x="63.623047" xlink:href="#DejaVuSans-35"/>
       <use x="127.246094" xlink:href="#DejaVuSans-2e"/>
       <use x="159.033203" xlink:href="#DejaVuSans-30"/>
      </g>
     </g>
    </g>
    <g id="text_17">
     <!-- y -->
     <defs>
      <path d="M 32.171875 -5.078125 
Q 28.375 -14.84375 24.75 -17.8125 
Q 21.140625 -20.796875 15.09375 -20.796875 
L 7.90625 -20.796875 
L 7.90625 -13.28125 
L 13.1875 -13.28125 
Q 16.890625 -13.28125 18.9375 -11.515625 
Q 21 -9.765625 23.484375 -3.21875 
L 25.09375 0.875 
L 2.984375 54.6875 
L 12.5 54.6875 
L 29.59375 11.921875 
L 46.6875 54.6875 
L 56.203125 54.6875 
z
" id="DejaVuSans-79"/>
     </defs>
     <g transform="translate(20.2375 177.487375)rotate(-90)scale(0.1 -0.1)">
      <use xlink:href="#DejaVuSans-79"/>
     </g>
    </g>
   </g>
   <g id="LineCollection_1">
    <path clip-path="url(#pbfe4a22b35)" d="M 73.832727 254.11261 
L 73.832727 230.590994 
" style="fill:none;stroke:#1f77b4;stroke-width:1.5;"/>
    <path clip-path="url(#pbfe4a22b35)" d="M 77.112066 281.730647 
L 77.112066 252.688779 
" style="fill:none;stroke:#1f77b4;stroke-width:1.5;"/>
    <path clip-path="url(#pbfe4a22b35)" d="M 80.391405 241.910874 
L 80.391405 200.018901 
" style="fill:none;stroke:#1f77b4;stroke-width:1.5;"/>
    <path clip-path="url(#pbfe4a22b35)" d="M 83.670744 253.134764 
L 83.670744 227.058227 
" style="fill:none;stroke:#1f77b4;stroke-width:1.5;"/>
    <path clip-path="url(#pbfe4a22b35)" d="M 86.950083 274.272126 
L 86.950083 250.403759 
" style="fill:none;stroke:#1f77b4;stroke-width:1.5;"/>
    <path clip-path="url(#pbfe4a22b35)" d="M 90.229421 249.940134 
L 90.229421 217.887449 
" style="fill:none;stroke:#1f77b4;stroke-width:1.5;"/>
    <path clip-path="url(#pbfe4a22b35)" d="M 93.50876 252.218195 
L 93.50876 224.163755 
" style="fill:none;stroke:#1f77b4;stroke-width:1.5;"/>
    <path clip-path="url(#pbfe4a22b35)" d="M 96.788099 274.752126 
L 96.788099 250.529751 
" style="fill:none;stroke:#1f77b4;stroke-width:1.5;"/>
    <path clip-path="url(#pbfe4a22b35)" d="M 100.067438 285.145351 
L 100.067438 253.931837 
" style="fill:none;stroke:#1f77b4;stroke-width:1.5;"/>
    <path clip-path="url(#pbfe4a22b35)" d="M 103.346777 278.011576 
L 103.346777 251.466885 
" style="fill:none;stroke:#1f77b4;stroke-width:1.5;"/>
    <path clip-path="url(#pbfe4a22b35)" d="M 106.626116 255.498001 
L 106.626116 237.997097 
" style="fill:none;stroke:#1f77b4;stroke-width:1.5;"/>
    <path clip-path="url(#pbfe4a22b35)" d="M 109.905455 245.589921 
L 109.905455 207.696985 
" style="fill:none;stroke:#1f77b4;stroke-width:1.5;"/>
    <path clip-path="url(#pbfe4a22b35)" d="M 113.184793 255.376682 
L 113.184793 245.659708 
" style="fill:none;stroke:#1f77b4;stroke-width:1.5;"/>
    <path clip-path="url(#pbfe4a22b35)" d="M 116.464132 272.744009 
L 116.464132 250.025346 
" style="fill:none;stroke:#1f77b4;stroke-width:1.5;"/>
    <path clip-path="url(#pbfe4a22b35)" d="M 119.743471 254.620495 
L 119.743471 232.748384 
" style="fill:none;stroke:#1f77b4;stroke-width:1.5;"/>
    <path clip-path="url(#pbfe4a22b35)" d="M 123.02281 269.749903 
L 123.02281 249.395121 
" style="fill:none;stroke:#1f77b4;stroke-width:1.5;"/>
    <path clip-path="url(#pbfe4a22b35)" d="M 126.302149 255.710285 
L 126.302149 241.719758 
" style="fill:none;stroke:#1f77b4;stroke-width:1.5;"/>
    <path clip-path="url(#pbfe4a22b35)" d="M 129.581488 246.932354 
L 129.581488 210.677208 
" style="fill:none;stroke:#1f77b4;stroke-width:1.5;"/>
    <path clip-path="url(#pbfe4a22b35)" d="M 132.860826 277.490649 
L 132.860826 251.30811 
" style="fill:none;stroke:#1f77b4;stroke-width:1.5;"/>
    <path clip-path="url(#pbfe4a22b35)" d="M 136.140165 255.03573 
L 136.140165 250.19548 
" style="fill:none;stroke:#1f77b4;stroke-width:1.5;"/>
    <path clip-path="url(#pbfe4a22b35)" d="M 139.419504 272.76783 
L 139.419504 250.030969 
" style="fill:none;stroke:#1f77b4;stroke-width:1.5;"/>
    <path clip-path="url(#pbfe4a22b35)" d="M 142.698843 275.420124 
L 142.698843 250.71047 
" style="fill:none;stroke:#1f77b4;stroke-width:1.5;"/>
    <path clip-path="url(#pbfe4a22b35)" d="M 145.978182 255.511579 
L 145.978182 238.122929 
" style="fill:none;stroke:#1f77b4;stroke-width:1.5;"/>
    <path clip-path="url(#pbfe4a22b35)" d="M 149.257521 275.991358 
L 149.257521 250.869819 
" style="fill:none;stroke:#1f77b4;stroke-width:1.5;"/>
    <path clip-path="url(#pbfe4a22b35)" d="M 152.53686 253.908873 
L 152.53686 229.801283 
" style="fill:none;stroke:#1f77b4;stroke-width:1.5;"/>
    <path clip-path="url(#pbfe4a22b35)" d="M 155.816198 249.665616 
L 155.816198 217.189593 
" style="fill:none;stroke:#1f77b4;stroke-width:1.5;"/>
    <path clip-path="url(#pbfe4a22b35)" d="M 159.095537 244.265554 
L 159.095537 204.86031 
" style="fill:none;stroke:#1f77b4;stroke-width:1.5;"/>
    <path clip-path="url(#pbfe4a22b35)" d="M 162.374876 253.468711 
L 162.374876 228.199124 
" style="fill:none;stroke:#1f77b4;stroke-width:1.5;"/>
    <path clip-path="url(#pbfe4a22b35)" d="M 165.654215 249.069129 
L 165.654215 215.705207 
" style="fill:none;stroke:#1f77b4;stroke-width:1.5;"/>
    <path clip-path="url(#pbfe4a22b35)" d="M 168.933554 242.041005 
L 168.933554 200.280637 
" style="fill:none;stroke:#1f77b4;stroke-width:1.5;"/>
    <path clip-path="url(#pbfe4a22b35)" d="M 172.212893 275.741575 
L 172.212893 250.799606 
" style="fill:none;stroke:#1f77b4;stroke-width:1.5;"/>
    <path clip-path="url(#pbfe4a22b35)" d="M 175.492231 242.72371 
L 175.492231 201.664273 
" style="fill:none;stroke:#1f77b4;stroke-width:1.5;"/>
    <path clip-path="url(#pbfe4a22b35)" d="M 178.77157 238.783589 
L 178.77157 193.897415 
" style="fill:none;stroke:#1f77b4;stroke-width:1.5;"/>
    <path clip-path="url(#pbfe4a22b35)" d="M 182.050909 248.660966 
L 182.050909 214.712287 
" style="fill:none;stroke:#1f77b4;stroke-width:1.5;"/>
    <path clip-path="url(#pbfe4a22b35)" d="M 185.330248 232.020544 
L 185.330248 181.49 
" style="fill:none;stroke:#1f77b4;stroke-width:1.5;"/>
    <path clip-path="url(#pbfe4a22b35)" d="M 188.609587 232.798471 
L 188.609587 182.871954 
" style="fill:none;stroke:#1f77b4;stroke-width:1.5;"/>
    <path clip-path="url(#pbfe4a22b35)" d="M 191.888926 240.509877 
L 191.888926 197.238572 
" style="fill:none;stroke:#1f77b4;stroke-width:1.5;"/>
    <path clip-path="url(#pbfe4a22b35)" d="M 195.168264 224.470763 
L 195.168264 168.528083 
" style="fill:none;stroke:#1f77b4;stroke-width:1.5;"/>
    <path clip-path="url(#pbfe4a22b35)" d="M 198.447603 209.10654 
L 198.447603 143.888093 
" style="fill:none;stroke:#1f77b4;stroke-width:1.5;"/>
    <path clip-path="url(#pbfe4a22b35)" d="M 201.726942 205.713298 
L 201.726942 138.664665 
" style="fill:none;stroke:#1f77b4;stroke-width:1.5;"/>
    <path clip-path="url(#pbfe4a22b35)" d="M 205.006281 198.116182 
L 205.006281 127.183049 
" style="fill:none;stroke:#1f77b4;stroke-width:1.5;"/>
    <path clip-path="url(#pbfe4a22b35)" d="M 208.28562 214.086416 
L 208.28562 151.679176 
" style="fill:none;stroke:#1f77b4;stroke-width:1.5;"/>
    <path clip-path="url(#pbfe4a22b35)" d="M 211.564959 188.427128 
L 211.564959 112.894916 
" style="fill:none;stroke:#1f77b4;stroke-width:1.5;"/>
    <path clip-path="url(#pbfe4a22b35)" d="M 214.844298 159.347408 
L 214.844298 71.718246 
" style="fill:none;stroke:#1f77b4;stroke-width:1.5;"/>
    <path clip-path="url(#pbfe4a22b35)" d="M 218.123636 164.767551 
L 218.123636 79.237736 
" style="fill:none;stroke:#1f77b4;stroke-width:1.5;"/>
    <path clip-path="url(#pbfe4a22b35)" d="M 221.402975 181.894858 
L 221.402975 103.447081 
" style="fill:none;stroke:#1f77b4;stroke-width:1.5;"/>
    <path clip-path="url(#pbfe4a22b35)" d="M 224.682314 146.09424 
L 224.682314 53.568 
" style="fill:none;stroke:#1f77b4;stroke-width:1.5;"/>
    <path clip-path="url(#pbfe4a22b35)" d="M 227.961653 159.803836 
L 227.961653 72.349144 
" style="fill:none;stroke:#1f77b4;stroke-width:1.5;"/>
    <path clip-path="url(#pbfe4a22b35)" d="M 231.240992 172.553619 
L 231.240992 90.152273 
" style="fill:none;stroke:#1f77b4;stroke-width:1.5;"/>
    <path clip-path="url(#pbfe4a22b35)" d="M 234.520331 168.265876 
L 234.520331 84.124425 
" style="fill:none;stroke:#1f77b4;stroke-width:1.5;"/>
    <path clip-path="url(#pbfe4a22b35)" d="M 237.799669 178.760823 
L 237.799669 98.9601 
" style="fill:none;stroke:#1f77b4;stroke-width:1.5;"/>
    <path clip-path="url(#pbfe4a22b35)" d="M 241.079008 154.444423 
L 241.079008 64.966535 
" style="fill:none;stroke:#1f77b4;stroke-width:1.5;"/>
    <path clip-path="url(#pbfe4a22b35)" d="M 244.358347 153.588101 
L 244.358347 63.791955 
" style="fill:none;stroke:#1f77b4;stroke-width:1.5;"/>
    <path clip-path="url(#pbfe4a22b35)" d="M 247.637686 153.416683 
L 247.637686 63.556988 
" style="fill:none;stroke:#1f77b4;stroke-width:1.5;"/>
    <path clip-path="url(#pbfe4a22b35)" d="M 250.917025 169.820715 
L 250.917025 86.30523 
" style="fill:none;stroke:#1f77b4;stroke-width:1.5;"/>
    <path clip-path="url(#pbfe4a22b35)" d="M 254.196364 185.062318 
L 254.196364 108.011431 
" style="fill:none;stroke:#1f77b4;stroke-width:1.5;"/>
    <path clip-path="url(#pbfe4a22b35)" d="M 257.475702 169.543887 
L 257.475702 85.916542 
" style="fill:none;stroke:#1f77b4;stroke-width:1.5;"/>
    <path clip-path="url(#pbfe4a22b35)" d="M 260.755041 181.270437 
L 260.755041 102.550843 
" style="fill:none;stroke:#1f77b4;stroke-width:1.5;"/>
    <path clip-path="url(#pbfe4a22b35)" d="M 264.03438 189.063571 
L 264.03438 113.822851 
" style="fill:none;stroke:#1f77b4;stroke-width:1.5;"/>
    <path clip-path="url(#pbfe4a22b35)" d="M 267.313719 196.67305 
L 267.313719 125.031628 
" style="fill:none;stroke:#1f77b4;stroke-width:1.5;"/>
    <path clip-path="url(#pbfe4a22b35)" d="M 270.593058 194.84479 
L 270.593058 122.318376 
" style="fill:none;stroke:#1f77b4;stroke-width:1.5;"/>
    <path clip-path="url(#pbfe4a22b35)" d="M 273.872397 203.514919 
L 273.872397 135.313572 
" style="fill:none;stroke:#1f77b4;stroke-width:1.5;"/>
    <path clip-path="url(#pbfe4a22b35)" d="M 277.151736 221.132195 
L 277.151736 163.007629 
" style="fill:none;stroke:#1f77b4;stroke-width:1.5;"/>
    <path clip-path="url(#pbfe4a22b35)" d="M 280.431074 230.135293 
L 280.431074 178.180834 
" style="fill:none;stroke:#1f77b4;stroke-width:1.5;"/>
    <path clip-path="url(#pbfe4a22b35)" d="M 283.710413 235.271701 
L 283.710413 187.336996 
" style="fill:none;stroke:#1f77b4;stroke-width:1.5;"/>
    <path clip-path="url(#pbfe4a22b35)" d="M 286.989752 221.883661 
L 286.989752 164.240683 
" style="fill:none;stroke:#1f77b4;stroke-width:1.5;"/>
    <path clip-path="url(#pbfe4a22b35)" d="M 290.269091 231.079749 
L 290.269091 179.831817 
" style="fill:none;stroke:#1f77b4;stroke-width:1.5;"/>
    <path clip-path="url(#pbfe4a22b35)" d="M 293.54843 252.823466 
L 293.54843 226.040673 
" style="fill:none;stroke:#1f77b4;stroke-width:1.5;"/>
    <path clip-path="url(#pbfe4a22b35)" d="M 296.827769 275.393184 
L 296.827769 250.703063 
" style="fill:none;stroke:#1f77b4;stroke-width:1.5;"/>
    <path clip-path="url(#pbfe4a22b35)" d="M 300.107107 246.826121 
L 300.107107 210.436994 
" style="fill:none;stroke:#1f77b4;stroke-width:1.5;"/>
    <path clip-path="url(#pbfe4a22b35)" d="M 303.386446 263.309783 
L 303.386446 248.692729 
" style="fill:none;stroke:#1f77b4;stroke-width:1.5;"/>
    <path clip-path="url(#pbfe4a22b35)" d="M 306.665785 247.30555 
L 306.665785 211.527626 
" style="fill:none;stroke:#1f77b4;stroke-width:1.5;"/>
    <path clip-path="url(#pbfe4a22b35)" d="M 309.945124 250.336067 
L 309.945124 218.912111 
" style="fill:none;stroke:#1f77b4;stroke-width:1.5;"/>
    <path clip-path="url(#pbfe4a22b35)" d="M 313.224463 236.575994 
L 313.224463 189.740391 
" style="fill:none;stroke:#1f77b4;stroke-width:1.5;"/>
    <path clip-path="url(#pbfe4a22b35)" d="M 316.503802 276.8396 
L 316.503802 251.11431 
" style="fill:none;stroke:#1f77b4;stroke-width:1.5;"/>
    <path clip-path="url(#pbfe4a22b35)" d="M 319.78314 294.241043 
L 319.78314 257.695773 
" style="fill:none;stroke:#1f77b4;stroke-width:1.5;"/>
    <path clip-path="url(#pbfe4a22b35)" d="M 323.062479 248.126108 
L 323.062479 213.436222 
" style="fill:none;stroke:#1f77b4;stroke-width:1.5;"/>
    <path clip-path="url(#pbfe4a22b35)" d="M 326.341818 255.532939 
L 326.341818 238.328962 
" style="fill:none;stroke:#1f77b4;stroke-width:1.5;"/>
    <path clip-path="url(#pbfe4a22b35)" d="M 329.621157 253.682105 
L 329.621157 228.960056 
" style="fill:none;stroke:#1f77b4;stroke-width:1.5;"/>
    <path clip-path="url(#pbfe4a22b35)" d="M 332.900496 276.265748 
L 332.900496 250.947894 
" style="fill:none;stroke:#1f77b4;stroke-width:1.5;"/>
    <path clip-path="url(#pbfe4a22b35)" d="M 336.179835 283.725926 
L 336.179835 253.402212 
" style="fill:none;stroke:#1f77b4;stroke-width:1.5;"/>
    <path clip-path="url(#pbfe4a22b35)" d="M 339.459174 264.815852 
L 339.459174 248.758859 
" style="fill:none;stroke:#1f77b4;stroke-width:1.5;"/>
    <path clip-path="url(#pbfe4a22b35)" d="M 342.738512 295.488 
L 342.738512 258.254974 
" style="fill:none;stroke:#1f77b4;stroke-width:1.5;"/>
    <path clip-path="url(#pbfe4a22b35)" d="M 346.017851 255.568906 
L 346.017851 244.341129 
" style="fill:none;stroke:#1f77b4;stroke-width:1.5;"/>
    <path clip-path="url(#pbfe4a22b35)" d="M 349.29719 255.549062 
L 349.29719 238.491965 
" style="fill:none;stroke:#1f77b4;stroke-width:1.5;"/>
    <path clip-path="url(#pbfe4a22b35)" d="M 352.576529 267.998471 
L 352.576529 249.10501 
" style="fill:none;stroke:#1f77b4;stroke-width:1.5;"/>
    <path clip-path="url(#pbfe4a22b35)" d="M 355.855868 287.301694 
L 355.855868 254.76894 
" style="fill:none;stroke:#1f77b4;stroke-width:1.5;"/>
    <path clip-path="url(#pbfe4a22b35)" d="M 359.135207 247.480547 
L 359.135207 211.930045 
" style="fill:none;stroke:#1f77b4;stroke-width:1.5;"/>
    <path clip-path="url(#pbfe4a22b35)" d="M 362.414545 252.535844 
L 362.414545 225.133663 
" style="fill:none;stroke:#1f77b4;stroke-width:1.5;"/>
    <path clip-path="url(#pbfe4a22b35)" d="M 365.693884 259.234502 
L 365.693884 248.937147 
" style="fill:none;stroke:#1f77b4;stroke-width:1.5;"/>
    <path clip-path="url(#pbfe4a22b35)" d="M 368.973223 275.839919 
L 368.973223 250.827151 
" style="fill:none;stroke:#1f77b4;stroke-width:1.5;"/>
    <path clip-path="url(#pbfe4a22b35)" d="M 372.252562 265.002031 
L 372.252562 248.77179 
" style="fill:none;stroke:#1f77b4;stroke-width:1.5;"/>
    <path clip-path="url(#pbfe4a22b35)" d="M 375.531901 254.157711 
L 375.531901 230.770781 
" style="fill:none;stroke:#1f77b4;stroke-width:1.5;"/>
    <path clip-path="url(#pbfe4a22b35)" d="M 378.81124 292.702265 
L 378.81124 257.018814 
" style="fill:none;stroke:#1f77b4;stroke-width:1.5;"/>
    <path clip-path="url(#pbfe4a22b35)" d="M 382.090579 255.563997 
L 382.090579 244.384723 
" style="fill:none;stroke:#1f77b4;stroke-width:1.5;"/>
    <path clip-path="url(#pbfe4a22b35)" d="M 385.369917 255.630608 
L 385.369917 243.700412 
" style="fill:none;stroke:#1f77b4;stroke-width:1.5;"/>
    <path clip-path="url(#pbfe4a22b35)" d="M 388.649256 267.622223 
L 388.649256 249.051229 
" style="fill:none;stroke:#1f77b4;stroke-width:1.5;"/>
    <path clip-path="url(#pbfe4a22b35)" d="M 391.928595 253.049353 
L 391.928595 251.44011 
" style="fill:none;stroke:#1f77b4;stroke-width:1.5;"/>
    <path clip-path="url(#pbfe4a22b35)" d="M 395.207934 276.293568 
L 395.207934 250.955865 
" style="fill:none;stroke:#1f77b4;stroke-width:1.5;"/>
    <path clip-path="url(#pbfe4a22b35)" d="M 398.487273 276.769392 
L 398.487273 251.093726 
" style="fill:none;stroke:#1f77b4;stroke-width:1.5;"/>
   </g>
   <g id="line2d_16">
    <defs>
     <path d="M -3 3 
L 3 -3 
M -3 -3 
L 3 3 
" id="m1eeee27c76" style="stroke:#1f77b4;"/>
    </defs>
    <g clip-path="url(#pbfe4a22b35)">
     <use style="fill:#1f77b4;stroke:#1f77b4;" x="73.832727" xlink:href="#m1eeee27c76" y="242.351802"/>
     <use style="fill:#1f77b4;stroke:#1f77b4;" x="77.112066" xlink:href="#m1eeee27c76" y="267.209713"/>
     <use style="fill:#1f77b4;stroke:#1f77b4;" x="80.391405" xlink:href="#m1eeee27c76" y="220.964887"/>
     <use style="fill:#1f77b4;stroke:#1f77b4;" x="83.670744" xlink:href="#m1eeee27c76" y="240.096496"/>
     <use style="fill:#1f77b4;stroke:#1f77b4;" x="86.950083" xlink:href="#m1eeee27c76" y="262.337942"/>
     <use style="fill:#1f77b4;stroke:#1f77b4;" x="90.229421" xlink:href="#m1eeee27c76" y="233.913791"/>
     <use style="fill:#1f77b4;stroke:#1f77b4;" x="93.50876" xlink:href="#m1eeee27c76" y="238.190975"/>
     <use style="fill:#1f77b4;stroke:#1f77b4;" x="96.788099" xlink:href="#m1eeee27c76" y="262.640938"/>
     <use style="fill:#1f77b4;stroke:#1f77b4;" x="100.067438" xlink:href="#m1eeee27c76" y="269.538594"/>
     <use style="fill:#1f77b4;stroke:#1f77b4;" x="103.346777" xlink:href="#m1eeee27c76" y="264.73923"/>
     <use style="fill:#1f77b4;stroke:#1f77b4;" x="106.626116" xlink:href="#m1eeee27c76" y="246.747549"/>
     <use style="fill:#1f77b4;stroke:#1f77b4;" x="109.905455" xlink:href="#m1eeee27c76" y="226.643453"/>
     <use style="fill:#1f77b4;stroke:#1f77b4;" x="113.184793" xlink:href="#m1eeee27c76" y="250.518195"/>
     <use style="fill:#1f77b4;stroke:#1f77b4;" x="116.464132" xlink:href="#m1eeee27c76" y="261.384677"/>
     <use style="fill:#1f77b4;stroke:#1f77b4;" x="119.743471" xlink:href="#m1eeee27c76" y="243.684439"/>
     <use style="fill:#1f77b4;stroke:#1f77b4;" x="123.02281" xlink:href="#m1eeee27c76" y="259.572512"/>
     <use style="fill:#1f77b4;stroke:#1f77b4;" x="126.302149" xlink:href="#m1eeee27c76" y="248.715022"/>
     <use style="fill:#1f77b4;stroke:#1f77b4;" x="129.581488" xlink:href="#m1eeee27c76" y="228.804781"/>
     <use style="fill:#1f77b4;stroke:#1f77b4;" x="132.860826" xlink:href="#m1eeee27c76" y="264.399379"/>
     <use style="fill:#1f77b4;stroke:#1f77b4;" x="136.140165" xlink:href="#m1eeee27c76" y="252.615605"/>
     <use style="fill:#1f77b4;stroke:#1f77b4;" x="139.419504" xlink:href="#m1eeee27c76" y="261.3994"/>
     <use style="fill:#1f77b4;stroke:#1f77b4;" x="142.698843" xlink:href="#m1eeee27c76" y="263.065297"/>
     <use style="fill:#1f77b4;stroke:#1f77b4;" x="145.978182" xlink:href="#m1eeee27c76" y="246.817254"/>
     <use style="fill:#1f77b4;stroke:#1f77b4;" x="149.257521" xlink:href="#m1eeee27c76" y="263.430588"/>
     <use style="fill:#1f77b4;stroke:#1f77b4;" x="152.53686" xlink:href="#m1eeee27c76" y="241.855078"/>
     <use style="fill:#1f77b4;stroke:#1f77b4;" x="155.816198" xlink:href="#m1eeee27c76" y="233.427605"/>
     <use style="fill:#1f77b4;stroke:#1f77b4;" x="159.095537" xlink:href="#m1eeee27c76" y="224.562932"/>
     <use style="fill:#1f77b4;stroke:#1f77b4;" x="162.374876" xlink:href="#m1eeee27c76" y="240.833918"/>
     <use style="fill:#1f77b4;stroke:#1f77b4;" x="165.654215" xlink:href="#m1eeee27c76" y="232.387168"/>
     <use style="fill:#1f77b4;stroke:#1f77b4;" x="168.933554" xlink:href="#m1eeee27c76" y="221.160821"/>
     <use style="fill:#1f77b4;stroke:#1f77b4;" x="172.212893" xlink:href="#m1eeee27c76" y="263.270591"/>
     <use style="fill:#1f77b4;stroke:#1f77b4;" x="175.492231" xlink:href="#m1eeee27c76" y="222.193992"/>
     <use style="fill:#1f77b4;stroke:#1f77b4;" x="178.77157" xlink:href="#m1eeee27c76" y="216.340502"/>
     <use style="fill:#1f77b4;stroke:#1f77b4;" x="182.050909" xlink:href="#m1eeee27c76" y="231.686626"/>
     <use style="fill:#1f77b4;stroke:#1f77b4;" x="185.330248" xlink:href="#m1eeee27c76" y="206.755272"/>
     <use style="fill:#1f77b4;stroke:#1f77b4;" x="188.609587" xlink:href="#m1eeee27c76" y="207.835212"/>
     <use style="fill:#1f77b4;stroke:#1f77b4;" x="191.888926" xlink:href="#m1eeee27c76" y="218.874224"/>
     <use style="fill:#1f77b4;stroke:#1f77b4;" x="195.168264" xlink:href="#m1eeee27c76" y="196.499423"/>
     <use style="fill:#1f77b4;stroke:#1f77b4;" x="198.447603" xlink:href="#m1eeee27c76" y="176.497316"/>
     <use style="fill:#1f77b4;stroke:#1f77b4;" x="201.726942" xlink:href="#m1eeee27c76" y="172.188981"/>
     <use style="fill:#1f77b4;stroke:#1f77b4;" x="205.006281" xlink:href="#m1eeee27c76" y="162.649615"/>
     <use style="fill:#1f77b4;stroke:#1f77b4;" x="208.28562" xlink:href="#m1eeee27c76" y="182.882796"/>
     <use style="fill:#1f77b4;stroke:#1f77b4;" x="211.564959" xlink:href="#m1eeee27c76" y="150.661022"/>
     <use style="fill:#1f77b4;stroke:#1f77b4;" x="214.844298" xlink:href="#m1eeee27c76" y="115.532827"/>
     <use style="fill:#1f77b4;stroke:#1f77b4;" x="218.123636" xlink:href="#m1eeee27c76" y="122.002643"/>
     <use style="fill:#1f77b4;stroke:#1f77b4;" x="221.402975" xlink:href="#m1eeee27c76" y="142.670969"/>
     <use style="fill:#1f77b4;stroke:#1f77b4;" x="224.682314" xlink:href="#m1eeee27c76" y="99.83112"/>
     <use style="fill:#1f77b4;stroke:#1f77b4;" x="227.961653" xlink:href="#m1eeee27c76" y="116.07649"/>
     <use style="fill:#1f77b4;stroke:#1f77b4;" x="231.240992" xlink:href="#m1eeee27c76" y="131.352946"/>
     <use style="fill:#1f77b4;stroke:#1f77b4;" x="234.520331" xlink:href="#m1eeee27c76" y="126.195151"/>
     <use style="fill:#1f77b4;stroke:#1f77b4;" x="237.799669" xlink:href="#m1eeee27c76" y="138.860462"/>
     <use style="fill:#1f77b4;stroke:#1f77b4;" x="241.079008" xlink:href="#m1eeee27c76" y="109.705479"/>
     <use style="fill:#1f77b4;stroke:#1f77b4;" x="244.358347" xlink:href="#m1eeee27c76" y="108.690028"/>
     <use style="fill:#1f77b4;stroke:#1f77b4;" x="247.637686" xlink:href="#m1eeee27c76" y="108.486835"/>
     <use style="fill:#1f77b4;stroke:#1f77b4;" x="250.917025" xlink:href="#m1eeee27c76" y="128.062972"/>
     <use style="fill:#1f77b4;stroke:#1f77b4;" x="254.196364" xlink:href="#m1eeee27c76" y="146.536875"/>
     <use style="fill:#1f77b4;stroke:#1f77b4;" x="257.475702" xlink:href="#m1eeee27c76" y="127.730215"/>
     <use style="fill:#1f77b4;stroke:#1f77b4;" x="260.755041" xlink:href="#m1eeee27c76" y="141.91064"/>
     <use style="fill:#1f77b4;stroke:#1f77b4;" x="264.03438" xlink:href="#m1eeee27c76" y="151.443211"/>
     <use style="fill:#1f77b4;stroke:#1f77b4;" x="267.313719" xlink:href="#m1eeee27c76" y="160.852339"/>
     <use style="fill:#1f77b4;stroke:#1f77b4;" x="270.593058" xlink:href="#m1eeee27c76" y="158.581583"/>
     <use style="fill:#1f77b4;stroke:#1f77b4;" x="273.872397" xlink:href="#m1eeee27c76" y="169.414245"/>
     <use style="fill:#1f77b4;stroke:#1f77b4;" x="277.151736" xlink:href="#m1eeee27c76" y="192.069912"/>
     <use style="fill:#1f77b4;stroke:#1f77b4;" x="280.431074" xlink:href="#m1eeee27c76" y="204.158064"/>
     <use style="fill:#1f77b4;stroke:#1f77b4;" x="283.710413" xlink:href="#m1eeee27c76" y="211.304348"/>
     <use style="fill:#1f77b4;stroke:#1f77b4;" x="286.989752" xlink:href="#m1eeee27c76" y="193.062172"/>
     <use style="fill:#1f77b4;stroke:#1f77b4;" x="290.269091" xlink:href="#m1eeee27c76" y="205.455783"/>
     <use style="fill:#1f77b4;stroke:#1f77b4;" x="293.54843" xlink:href="#m1eeee27c76" y="239.432069"/>
     <use style="fill:#1f77b4;stroke:#1f77b4;" x="296.827769" xlink:href="#m1eeee27c76" y="263.048124"/>
     <use style="fill:#1f77b4;stroke:#1f77b4;" x="300.107107" xlink:href="#m1eeee27c76" y="228.631558"/>
     <use style="fill:#1f77b4;stroke:#1f77b4;" x="303.386446" xlink:href="#m1eeee27c76" y="256.001256"/>
     <use style="fill:#1f77b4;stroke:#1f77b4;" x="306.665785" xlink:href="#m1eeee27c76" y="229.416588"/>
     <use style="fill:#1f77b4;stroke:#1f77b4;" x="309.945124" xlink:href="#m1eeee27c76" y="234.624089"/>
     <use style="fill:#1f77b4;stroke:#1f77b4;" x="313.224463" xlink:href="#m1eeee27c76" y="213.158192"/>
     <use style="fill:#1f77b4;stroke:#1f77b4;" x="316.503802" xlink:href="#m1eeee27c76" y="263.976955"/>
     <use style="fill:#1f77b4;stroke:#1f77b4;" x="319.78314" xlink:href="#m1eeee27c76" y="275.968408"/>
     <use style="fill:#1f77b4;stroke:#1f77b4;" x="323.062479" xlink:href="#m1eeee27c76" y="230.781165"/>
     <use style="fill:#1f77b4;stroke:#1f77b4;" x="326.341818" xlink:href="#m1eeee27c76" y="246.93095"/>
     <use style="fill:#1f77b4;stroke:#1f77b4;" x="329.621157" xlink:href="#m1eeee27c76" y="241.321081"/>
     <use style="fill:#1f77b4;stroke:#1f77b4;" x="332.900496" xlink:href="#m1eeee27c76" y="263.606821"/>
     <use style="fill:#1f77b4;stroke:#1f77b4;" x="336.179835" xlink:href="#m1eeee27c76" y="268.564069"/>
     <use style="fill:#1f77b4;stroke:#1f77b4;" x="339.459174" xlink:href="#m1eeee27c76" y="256.787356"/>
     <use style="fill:#1f77b4;stroke:#1f77b4;" x="342.738512" xlink:href="#m1eeee27c76" y="276.871487"/>
     <use style="fill:#1f77b4;stroke:#1f77b4;" x="346.017851" xlink:href="#m1eeee27c76" y="249.955017"/>
     <use style="fill:#1f77b4;stroke:#1f77b4;" x="349.29719" xlink:href="#m1eeee27c76" y="247.020513"/>
     <use style="fill:#1f77b4;stroke:#1f77b4;" x="352.576529" xlink:href="#m1eeee27c76" y="258.551741"/>
     <use style="fill:#1f77b4;stroke:#1f77b4;" x="355.855868" xlink:href="#m1eeee27c76" y="271.035317"/>
     <use style="fill:#1f77b4;stroke:#1f77b4;" x="359.135207" xlink:href="#m1eeee27c76" y="229.705296"/>
     <use style="fill:#1f77b4;stroke:#1f77b4;" x="362.414545" xlink:href="#m1eeee27c76" y="238.834754"/>
     <use style="fill:#1f77b4;stroke:#1f77b4;" x="365.693884" xlink:href="#m1eeee27c76" y="254.085824"/>
     <use style="fill:#1f77b4;stroke:#1f77b4;" x="368.973223" xlink:href="#m1eeee27c76" y="263.333535"/>
     <use style="fill:#1f77b4;stroke:#1f77b4;" x="372.252562" xlink:href="#m1eeee27c76" y="256.886911"/>
     <use style="fill:#1f77b4;stroke:#1f77b4;" x="375.531901" xlink:href="#m1eeee27c76" y="242.464246"/>
     <use style="fill:#1f77b4;stroke:#1f77b4;" x="378.81124" xlink:href="#m1eeee27c76" y="274.860539"/>
     <use style="fill:#1f77b4;stroke:#1f77b4;" x="382.090579" xlink:href="#m1eeee27c76" y="249.97436"/>
     <use style="fill:#1f77b4;stroke:#1f77b4;" x="385.369917" xlink:href="#m1eeee27c76" y="249.66551"/>
     <use style="fill:#1f77b4;stroke:#1f77b4;" x="388.649256" xlink:href="#m1eeee27c76" y="258.336726"/>
     <use style="fill:#1f77b4;stroke:#1f77b4;" x="391.928595" xlink:href="#m1eeee27c76" y="252.244731"/>
     <use style="fill:#1f77b4;stroke:#1f77b4;" x="395.207934" xlink:href="#m1eeee27c76" y="263.624717"/>
     <use style="fill:#1f77b4;stroke:#1f77b4;" x="398.487273" xlink:href="#m1eeee27c76" y="263.931559"/>
    </g>
   </g>
   <g id="patch_3">
    <path d="M 57.6 307.584 
L 57.6 41.472 
" style="fill:none;stroke:#000000;stroke-linecap:square;stroke-linejoin:miter;stroke-width:0.8;"/>
   </g>
   <g id="patch_4">
    <path d="M 414.72 307.584 
L 414.72 41.472 
" style="fill:none;stroke:#000000;stroke-linecap:square;stroke-linejoin:miter;stroke-width:0.8;"/>
   </g>
   <g id="patch_5">
    <path d="M 57.6 307.584 
L 414.72 307.584 
" style="fill:none;stroke:#000000;stroke-linecap:square;stroke-linejoin:miter;stroke-width:0.8;"/>
   </g>
   <g id="patch_6">
    <path d="M 57.6 41.472 
L 414.72 41.472 
" style="fill:none;stroke:#000000;stroke-linecap:square;stroke-linejoin:miter;stroke-width:0.8;"/>
   </g>
  </g>
 </g>
 <defs>
  <clipPath id="pbfe4a22b35">
   <rect height="266.112" width="357.12" x="57.6" y="41.472"/>
  </clipPath>
 </defs>
</svg>
